<svg width="17" height="15" viewBox="0 0 17 15" fill="none" xmlns="http://www.w3.org/2000/svg">
<path d="M7.91659 14.1667C7.22214 14.1667 6.63186 13.9236 6.14575 13.4375C5.65964 12.9514 5.41659 12.3611 5.41659 11.6667H7.08325C7.08325 11.9028 7.16311 12.1007 7.32284 12.2604C7.48256 12.4201 7.68048 12.5 7.91659 12.5C8.1527 12.5 8.35061 12.4201 8.51034 12.2604C8.67006 12.1007 8.74992 11.9028 8.74992 11.6667C8.74992 11.4306 8.67006 11.2326 8.51034 11.0729C8.35061 10.9132 8.1527 10.8333 7.91659 10.8333H-8.01086e-05V9.16667H7.91659C8.61103 9.16667 9.20131 9.40972 9.68742 9.89583C10.1735 10.3819 10.4166 10.9722 10.4166 11.6667C10.4166 12.3611 10.1735 12.9514 9.68742 13.4375C9.20131 13.9236 8.61103 14.1667 7.91659 14.1667V14.1667M-8.01086e-05 5.83333V4.16667H11.2499C11.611 4.16667 11.9096 4.04861 12.1458 3.8125C12.3819 3.57639 12.4999 3.27778 12.4999 2.91667C12.4999 2.55556 12.3819 2.25694 12.1458 2.02083C11.9096 1.78472 11.611 1.66667 11.2499 1.66667C10.8888 1.66667 10.5902 1.78472 10.3541 2.02083C10.118 2.25694 9.99992 2.55556 9.99992 2.91667H8.33325C8.33325 2.09722 8.6145 1.40625 9.177 0.84375C9.7395 0.28125 10.4305 0 11.2499 0C12.0694 0 12.7603 0.28125 13.3228 0.84375C13.8853 1.40625 14.1666 2.09722 14.1666 2.91667C14.1666 3.73611 13.8853 4.42708 13.3228 4.98958C12.7603 5.55208 12.0694 5.83333 11.2499 5.83333H-8.01086e-05V5.83333M13.7499 12.5V10.8333C14.111 10.8333 14.4096 10.7153 14.6458 10.4792C14.8819 10.2431 14.9999 9.94444 14.9999 9.58333C14.9999 9.22222 14.8819 8.92361 14.6458 8.6875C14.4096 8.45139 14.111 8.33333 13.7499 8.33333H-8.01086e-05V6.66667H13.7499C14.5694 6.66667 15.2603 6.94792 15.8228 7.51042C16.3853 8.07292 16.6666 8.76389 16.6666 9.58333C16.6666 10.4028 16.3853 11.0938 15.8228 11.6562C15.2603 12.2188 14.5694 12.5 13.7499 12.5V12.5" fill="white" fill-opacity="0.5"/>
</svg>
